<svg xmlns="http://www.w3.org/2000/svg" viewBox="0 0 32 32" id="wind-turbine"><path fill="#fff" d="M13.937 28H30v2H2v-2h8.062l.701-11.215c.392.128.803.215 1.237.215s.845-.087 1.237-.215l.7 11.215zm2.422-10.417a7.606 7.606 0 0 1-1.918-1.435 3.969 3.969 0 0 0 1.532-2.884 7.604 7.604 0 0 1 2.263.787c3.072 1.633 3.476 4.113 3.476 4.113s-2.281 1.052-5.353-.581zm-5.995-8.226A7.593 7.593 0 0 1 10 7c0-3.479 2-5 2-5s2 1.521 2 5c0 .924-.152 1.698-.364 2.357C13.136 9.132 12.584 9 12 9s-1.136.132-1.636.357zM10 13a2 2 0 1 1 3.999-.001A2 2 0 0 1 10 13zm15-3h5v2h-5a1.001 1.001 0 0 0 0 2 1 1 0 1 1 0 2c-1.654 0-3-1.346-3-3s1.346-3 3-3zm5-4v2h-8c-1.654 0-3-1.346-3-3s1.346-3 3-3a1 1 0 1 1 0 2 1.001 1.001 0 0 0 0 2h8zM2.288 18.164s.404-2.48 3.476-4.113a7.604 7.604 0 0 1 2.263-.787 3.969 3.969 0 0 0 1.532 2.884 7.63 7.63 0 0 1-1.918 1.435c-3.072 1.633-5.353.581-5.353.581z"></path></svg>