<svg xmlns="http://www.w3.org/2000/svg" data-name="Layer 1" viewBox="0 0 512 512" id="windsock"><path fill="#8b8891" d="M21 37.5h30v467H21z"></path><circle cx="36" cy="36" r="28.5" fill="#e5303e"></circle><path fill="#e5303e" d="M325.5 131.5a211.048 211.048 0 0 1-7.09 48.72.326.326 0 0 0-.02.06 210.724 210.724 0 0 1-8.57 25.44c-.11.27-.22.53-.32.78l-.09.24h-.01c-8.62-3.32-17.07-6.56-27.46-9.06-.59-.14-6.87-1.61-13.5-2.6-19.94-2.98-39.58-1.12-50.74.4.08-.22.16-.48.27-.79.17-.47.33-.93.49-1.39a196.483 196.483 0 0 0 10.47-29.23 192.046 192.046 0 0 0 6.57-42.57 195.912 195.912 0 0 0-20-94l-.15-2.39c36.06-2.18 63.62 7.65 84.22 19.68q6.81 3.975 12.93 7.71a211.657 211.657 0 0 1 13 79Z"></path><path fill="#b72732" d="M318.41 180.22a.326.326 0 0 0-.02.06c-.34 1.1-5.7 18.19-8.57 25.44-.11.27-.22.53-.32.78l-.09.24h-.01c-8.62-3.32-17.07-6.56-27.46-9.06-.59-.14-6.87-1.61-13.5-2.6-19.94-2.98-39.58-1.12-50.74.4.08-.22.16-.48.27-.79.17-.47.33-.93.49-1.39a196.483 196.483 0 0 0 10.47-29.23 163.792 163.792 0 0 1 39.51 1.01c17.17 2.53 28.9 7.01 40.96 11.66h.01Z"></path><path fill="#e0e0e2" d="m392.5 221.5.01.38a183.444 183.444 0 0 1-48.09-3.96c-14.27-3.14-24.75-7.22-35.01-11.18l.09-.24a211.19 211.19 0 0 0 3-154c39.87 24.26 59.87 41.13 80.11 51.79l-.11.21a213.544 213.544 0 0 1 0 117Z"></path><path fill="#afaeb3" d="M392.51 191.88a183.444 183.444 0 0 1-48.09-3.96 191.712 191.712 0 0 1-25.999-7.753A211.729 211.729 0 0 1 309.5 206.5l-.09.24c10.26 3.96 20.74 8.04 35.01 11.18a183.444 183.444 0 0 0 48.09 3.96l-.01-.38a218.139 218.139 0 0 0 6.249-30.002Z"></path><path fill="#e5303e" d="M478.5 161.5a82.588 82.588 0 0 1-13.31 45.16 274.776 274.776 0 0 1-42.69 11.72 218.147 218.147 0 0 1-29.99 3.5l-.01-.38a213.544 213.544 0 0 0 0-117l.11-.21a111.84 111.84 0 0 0 29.9 10.87c10.14 2.15 23.91 3.37 41.42.08a82.665 82.665 0 0 1 14.57 46.26Z"></path><path fill="#b72732" d="M464.81 176.19c-4.884 4.222-12.109 4.728-18.085 6.444-7.98 2.29-16.062 4.229-24.225 5.746a221.612 221.612 0 0 1-23.758 3.117A215.966 215.966 0 0 1 392.5 221.5l.01.38a218.147 218.147 0 0 0 29.99-3.5 274.776 274.776 0 0 0 42.69-11.72 82.588 82.588 0 0 0 13.31-45.16 81.066 81.066 0 0 0-1.396-14.62c1.26 6.703-6.687 23.552-11.337 28.402q-.461.481-.957.909zM138.5 45.5a191.151 191.151 0 0 1 22.915 96 190.577 190.577 0 0 1-22.915 85 175.786 175.786 0 0 1 0-181z"></path><path fill="#991d1f" d="M133.5 141.5a176.424 176.424 0 0 1 14.537-75.528A190.441 190.441 0 0 0 138.5 45.5a175.786 175.786 0 0 0 0 181 190.58 190.58 0 0 0 9.534-20.407A175.974 175.974 0 0 1 133.5 141.5Z"></path><path fill="#b72732" d="M138.5 45.5a191.151 191.151 0 0 1 22.915 96 190.577 190.577 0 0 1-22.915 85 175.786 175.786 0 0 1 0-181Z"></path><path fill="#9e1d20" d="M138.5 45.5a176.399 176.399 0 0 0-10.463 20.472 190.16 190.16 0 0 1 13.378 75.528 189.772 189.772 0 0 1-13.381 64.593A176.813 176.813 0 0 0 138.5 226.5a190.577 190.577 0 0 0 22.915-85 191.151 191.151 0 0 0-22.915-96Z"></path><path fill="#8b8891" d="M62.932 154a8.52 8.52 0 0 1-4.752-1.42 6.647 6.647 0 0 1-1.595-9.966l79.904-95.675a8.554 8.554 0 0 1 11.113-1.43 6.647 6.647 0 0 1 1.595 9.964l-79.904 95.675a8.268 8.268 0 0 1-6.36 2.852Z"></path><path fill="#8b8891" d="m138.59 226.55-81.492-75.961a6.367 6.367 0 0 1 .317-9.715 8.358 8.358 0 0 1 10.876.282l77.911 73.755Z"></path><path fill="#e0e0e2" d="M235.391 121.5c-.585 12.42-2.174 24.597-2.174 24.597-1.753 7.015-2.704 12.368-4.26 17.89a279.586 279.586 0 0 1-10.192 29.618l-1.064 1.875c-31.8 5.12-58.91 18.54-79.39 31.38.05-.1.11-.2.17-.31a191.807 191.807 0 0 0 22.91-88.05 191.75 191.75 0 0 0-22.8-93.11c-.04-.08-.09-.16-.13-.24 29.07-12.78 54.54-18.7 76.78-20.04l.15 2.39a191.314 191.314 0 0 1 20 94Z"></path><path fill="#afaeb3" d="M216.075 166.267a264.047 264.047 0 0 0-37.456 11.094c-3.64 1.358-7.146 2.868-10.671 4.466q-3.627 1.65-7.194 3.424c-1.076.535-6.562 2.49-6.87 3.553a192.26 192.26 0 0 1-15.403 37.746c-.06.11-.12.21-.17.31 20.48-12.84 47.59-26.26 79.39-31.38l.68-1.703c2.352-5.88 3.145-7.681 4.068-9.997 1.969-4.94 3.222-8.934 4.441-12.82a229.474 229.474 0 0 0 2.066-6.973q-1.527.193-3.133.446-1.615.255-3.136.547s-3.354.598-6.612 1.287Z"></path><rect width="57" height="62" x="7.5" y="115.5" fill="#58565d" rx="5"></rect></svg>